<svg width="200" height="40" viewBox="0 0 200 40" fill="none" xmlns="http://www.w3.org/2000/svg">
<path d="M12.5248 1.97525C12.7508 1.3877 13.3153 1 13.9448 1H25.5842C26.1954 1 26.7473 1.36573 26.9854 1.9286L30.9828 11.3771C31.4718 12.5328 30.4301 13.7502 29.2127 13.4459L21.5988 11.5424C20.5489 11.2799 19.4507 11.2799 18.4008 11.5424L10.6684 13.4755C9.47334 13.7743 8.43721 12.6031 8.87941 11.4534L12.5248 1.97525Z" fill="url(#paint0_linear_287_7477)"/>
<path d="M0.210972 21.0185C-0.300266 20.1494 0.160013 19.0324 1.13513 18.7758L16.5549 14.7179C17.5196 14.4641 18.4635 15.1917 18.4635 16.1892V37.4615C18.4635 38.4999 17.4462 39.2332 16.461 38.9048L9.87619 36.7099C9.52733 36.5936 9.2324 36.3549 9.04595 36.0379L0.210972 21.0185Z" fill="url(#paint1_linear_287_7477)"/>
<path d="M39.789 21.0185C40.3003 20.1494 39.84 19.0324 38.8649 18.7758L23.4451 14.7179C22.4804 14.4641 21.5365 15.1917 21.5365 16.1892V37.4615C21.5365 38.4999 22.5538 39.2332 23.539 38.9048L30.1238 36.7099C30.4727 36.5936 30.7676 36.3549 30.9541 36.0379L39.789 21.0185Z" fill="url(#paint2_linear_287_7477)"/>
<path d="M61.7126 33.3332C59.8857 33.3332 58.2322 32.9154 56.7522 32.0799C55.2953 31.2444 54.1391 30.1072 53.2834 28.6682C52.4278 27.2061 52 25.5815 52 23.7944C52 21.9842 52.4278 20.3596 53.2834 18.9206C54.1391 17.4817 55.2953 16.3445 56.7522 15.509C58.2322 14.6503 59.8857 14.2209 61.7126 14.2209C63.2157 14.2209 64.6495 14.5226 66.0139 15.126C67.3782 15.7062 68.5345 16.5418 69.4826 17.6326L66.0486 21.2183C65.401 20.4756 64.742 19.9418 64.0713 19.6169C63.4007 19.2688 62.6607 19.0947 61.8513 19.0947C61.0419 19.0947 60.3135 19.3036 59.666 19.7213C59.0185 20.1159 58.5097 20.6729 58.1397 21.3924C57.7697 22.0886 57.5847 22.8893 57.5847 23.7944C57.5847 24.6764 57.7697 25.4771 58.1397 26.1965C58.5329 26.8928 59.0647 27.4498 59.7354 27.8675C60.406 28.2621 61.1576 28.4594 61.9901 28.4594C62.7532 28.4594 63.4585 28.2969 64.106 27.972C64.7535 27.6471 65.3779 27.1481 65.9792 26.475L69.3092 29.9563C68.3842 31.0239 67.2511 31.8594 65.9098 32.4628C64.5685 33.0431 63.1695 33.3332 61.7126 33.3332Z" fill="white"/>
<path d="M80.1462 33.3332C78.273 33.3332 76.5849 32.9154 75.0817 32.0799C73.5786 31.2212 72.3876 30.0724 71.5089 28.6334C70.6301 27.1945 70.1908 25.5815 70.1908 23.7944C70.1908 22.0074 70.6301 20.3944 71.5089 18.9555C72.3876 17.4933 73.5786 16.3445 75.0817 15.509C76.5849 14.6503 78.273 14.2209 80.1462 14.2209C82.0193 14.2209 83.7074 14.6503 85.2106 15.509C86.7137 16.3445 87.9047 17.4933 88.7834 18.9555C89.6622 20.3944 90.1015 22.0074 90.1015 23.7944C90.1015 25.5815 89.6622 27.1945 88.7834 28.6334C87.9047 30.0724 86.7137 31.2212 85.2106 32.0799C83.7074 32.9154 82.0193 33.3332 80.1462 33.3332ZM80.1462 28.4594C81.0018 28.4594 81.7649 28.2505 82.4355 27.8327C83.1062 27.415 83.6381 26.858 84.0312 26.1617C84.4243 25.4423 84.6209 24.6532 84.6209 23.7944C84.6209 22.9125 84.4243 22.1234 84.0312 21.4272C83.6381 20.7077 83.0946 20.1391 82.4009 19.7213C81.7302 19.3036 80.9787 19.0947 80.1462 19.0947C79.3136 19.0947 78.5505 19.3036 77.8568 19.7213C77.1861 20.1391 76.6542 20.7077 76.2611 21.4272C75.868 22.1234 75.6714 22.9125 75.6714 23.7944C75.6714 24.6532 75.868 25.4423 76.2611 26.1617C76.6542 26.858 77.1861 27.415 77.8568 27.8327C78.5505 28.2505 79.3136 28.4594 80.1462 28.4594Z" fill="white"/>
<path d="M92.737 32.985V8.61602L98.3564 7.39758V15.8223C99.7439 14.7547 101.386 14.2209 103.282 14.2209C104.716 14.2209 105.976 14.5342 107.063 15.1608C108.173 15.7875 109.04 16.6578 109.665 17.7718C110.289 18.8858 110.601 20.1739 110.601 21.636V32.985H104.982V22.4019C104.982 21.3807 104.681 20.5684 104.08 19.965C103.479 19.3616 102.669 19.0599 101.652 19.0599C100.935 19.0599 100.299 19.1875 99.7439 19.4428C99.2121 19.6981 98.7495 20.0579 98.3564 20.522V32.985H92.737Z" fill="white"/>
<path d="M123.1 33.3332C121.227 33.3332 119.527 32.9154 118.001 32.0799C116.498 31.2212 115.307 30.0724 114.428 28.6334C113.549 27.1945 113.11 25.5815 113.11 23.7944C113.11 22.0074 113.526 20.3944 114.359 18.9555C115.214 17.5165 116.371 16.3793 117.828 15.5438C119.285 14.6851 120.903 14.2557 122.684 14.2557C124.488 14.2557 126.083 14.6967 127.471 15.5786C128.858 16.4373 129.945 17.621 130.731 19.1295C131.541 20.6381 131.946 22.3671 131.946 24.3166V25.7092H118.868C119.123 26.2894 119.458 26.8 119.874 27.2409C120.314 27.6819 120.834 28.03 121.435 28.2853C122.036 28.5174 122.684 28.6334 123.378 28.6334C124.141 28.6334 124.835 28.5174 125.459 28.2853C126.083 28.03 126.615 27.6819 127.055 27.2409L130.766 30.5481C129.61 31.5229 128.419 32.2308 127.193 32.6717C125.991 33.1127 124.626 33.3332 123.1 33.3332ZM118.764 21.7753H126.43C126.245 21.1719 125.956 20.6613 125.563 20.2435C125.193 19.8026 124.754 19.466 124.245 19.234C123.736 18.9787 123.181 18.851 122.58 18.851C121.955 18.851 121.389 18.9671 120.88 19.1991C120.371 19.4312 119.932 19.7678 119.562 20.2087C119.215 20.6265 118.949 21.1487 118.764 21.7753Z" fill="white"/>
<path d="M141.991 33.3332C140.257 33.3332 138.65 33.1359 137.17 32.7414C135.69 32.3236 134.406 31.7202 133.32 30.9311L135.99 27.1365C137.147 27.8327 138.199 28.3433 139.147 28.6682C140.095 28.97 141.032 29.1208 141.957 29.1208C142.882 29.1208 143.61 28.9932 144.142 28.7379C144.697 28.4594 144.975 28.0996 144.975 27.6587C144.975 27.3105 144.824 27.032 144.524 26.8232C144.223 26.5911 143.749 26.4286 143.101 26.3358L139.459 25.7788C137.632 25.5003 136.233 24.8968 135.262 23.9685C134.314 23.017 133.84 21.7869 133.84 20.2783C133.84 19.0251 134.152 17.9575 134.776 17.0756C135.424 16.1704 136.337 15.4858 137.517 15.0216C138.696 14.5342 140.107 14.2905 141.749 14.2905C143.09 14.2905 144.42 14.4762 145.738 14.8475C147.056 15.2189 148.282 15.7759 149.415 16.5185L146.744 20.1391C145.749 19.5589 144.801 19.1411 143.899 18.8858C142.997 18.6073 142.096 18.4681 141.194 18.4681C140.477 18.4681 139.899 18.5957 139.459 18.851C139.02 19.0831 138.8 19.3964 138.8 19.791C138.8 20.1623 138.962 20.464 139.286 20.6961C139.61 20.905 140.165 21.0674 140.951 21.1835L144.593 21.7405C146.397 21.9958 147.784 22.5992 148.756 23.5508C149.75 24.4791 150.247 25.6627 150.247 27.1017C150.247 28.3085 149.889 29.3761 149.172 30.3044C148.455 31.2328 147.472 31.9755 146.223 32.5325C144.998 33.0663 143.587 33.3332 141.991 33.3332Z" fill="white"/>
<path d="M152.39 32.985V14.569H158.01V32.985H152.39ZM155.2 12.8632C154.345 12.8632 153.616 12.5615 153.015 11.9581C152.414 11.3546 152.113 10.6236 152.113 9.76485C152.113 8.90613 152.414 8.17506 153.015 7.57164C153.616 6.96822 154.345 6.6665 155.2 6.6665C156.056 6.6665 156.784 6.96822 157.386 7.57164C157.987 8.17506 158.287 8.90613 158.287 9.76485C158.287 10.6236 157.987 11.3546 157.386 11.9581C156.784 12.5615 156.056 12.8632 155.2 12.8632Z" fill="white"/>
<path d="M167.505 32.985L159.665 14.569H165.77L170.314 25.8484L174.858 14.569H180.825L172.985 32.985H167.505Z" fill="white"/>
<path d="M191.155 33.3332C189.281 33.3332 187.582 32.9154 186.056 32.0799C184.552 31.2212 183.361 30.0724 182.483 28.6334C181.604 27.1945 181.165 25.5815 181.165 23.7944C181.165 22.0074 181.581 20.3944 182.413 18.9555C183.269 17.5165 184.425 16.3793 185.882 15.5438C187.339 14.6851 188.958 14.2557 190.738 14.2557C192.542 14.2557 194.138 14.6967 195.525 15.5786C196.913 16.4373 198 17.621 198.786 19.1295C199.595 20.6381 200 22.3671 200 24.3166V25.7092H186.923C187.177 26.2894 187.512 26.8 187.929 27.2409C188.368 27.6819 188.888 28.03 189.49 28.2853C190.091 28.5174 190.738 28.6334 191.432 28.6334C192.195 28.6334 192.889 28.5174 193.513 28.2853C194.138 28.03 194.67 27.6819 195.109 27.2409L198.821 30.5481C197.664 31.5229 196.473 32.2308 195.248 32.6717C194.045 33.1127 192.681 33.3332 191.155 33.3332ZM186.819 21.7753H194.485C194.3 21.1719 194.011 20.6613 193.617 20.2435C193.247 19.8026 192.808 19.466 192.299 19.234C191.791 18.9787 191.236 18.851 190.634 18.851C190.01 18.851 189.443 18.9671 188.935 19.1991C188.426 19.4312 187.986 19.7678 187.616 20.2087C187.27 20.6265 187.004 21.1487 186.819 21.7753Z" fill="white"/>
<defs>
<linearGradient id="paint0_linear_287_7477" x1="20" y1="1" x2="20" y2="38.9841" gradientUnits="userSpaceOnUse">
<stop stop-color="#ED634E"/>
<stop offset="1" stop-color="#F5BD41"/>
</linearGradient>
<linearGradient id="paint1_linear_287_7477" x1="20" y1="1" x2="20" y2="38.9841" gradientUnits="userSpaceOnUse">
<stop stop-color="#ED634E"/>
<stop offset="1" stop-color="#F5BD41"/>
</linearGradient>
<linearGradient id="paint2_linear_287_7477" x1="20" y1="1" x2="20" y2="38.9841" gradientUnits="userSpaceOnUse">
<stop stop-color="#ED634E"/>
<stop offset="1" stop-color="#F5BD41"/>
</linearGradient>
</defs>
</svg>
